HIERARCHY
ROOT Hips
{
 OFFSET 0.000000 0.000000 0.000000
 CHANNELS 6 Xposition Yposition Zposition Yrotation Xrotation Zrotation
 JOINT Chest
 {
  OFFSET 0.000000 9.585900 0.002600
  CHANNELS 3 Yrotation Xrotation Zrotation
  JOINT Chest2
  {
   OFFSET 0.000000 9.601200 -0.005300
   CHANNELS 3 Yrotation Xrotation Zrotation
   JOINT Chest3
   {
    OFFSET 0.000000 9.561800 0.000000
    CHANNELS 3 Yrotation Xrotation Zrotation
    JOINT Chest4
    {
     OFFSET 0.000000 9.552100 0.000000
     CHANNELS 3 Yrotation Xrotation Zrotation
     JOINT Neck
     {
      OFFSET 0.000000 14.453000 0.000000
      CHANNELS 3 Yrotation Xrotation Zrotation
      JOINT Head
      {
       OFFSET 0.000000 8.936500 -0.011300
       CHANNELS 3 Yrotation Xrotation Zrotation
       End Site
       {
        OFFSET 0.000000 17.073600 -0.006000
       }
      }
     }
     JOINT RightCollar
     {
      OFFSET -2.921100 9.558500 0.000000
      CHANNELS 3 Yrotation Xrotation Zrotation
      JOINT RightShoulder
      {
       OFFSET -13.519700 0.000000 0.000000
       CHANNELS 3 Yrotation Xrotation Zrotation
       JOINT RightElbow
       {
        OFFSET 0.000000 -29.696600 0.000000
        CHANNELS 3 Yrotation Xrotation Zrotation
        JOINT RightWrist
        {
         OFFSET 0.000000 -24.004700 0.000000
         CHANNELS 3 Yrotation Xrotation Zrotation
         End Site
         {
          OFFSET 0.000000 -17.728500 0.000000
         }
        }
       }
      }
     }
     JOINT LeftCollar
     {
      OFFSET 2.921100 9.558500 0.000000
      CHANNELS 3 Yrotation Xrotation Zrotation
      JOINT LeftShoulder
      {
       OFFSET 13.519700 0.000000 0.000000
       CHANNELS 3 Yrotation Xrotation Zrotation
       JOINT LeftElbow
       {
        OFFSET 0.000000 -29.696600 0.000000
        CHANNELS 3 Yrotation Xrotation Zrotation
        JOINT LeftWrist
        {
         OFFSET 0.000000 -24.004700 0.000000
         CHANNELS 3 Yrotation Xrotation Zrotation
         End Site
         {
          OFFSET 0.000000 -17.728500 0.000000
         }
        }
       }
      }
     }
    }
   }
  }
 }
 JOINT RightHip
 {
  OFFSET -7.771700 -0.012900 -0.001300
  CHANNELS 3 Yrotation Xrotation Zrotation
  JOINT RightKnee
  {
   OFFSET 0.000000 -40.869800 0.001200
   CHANNELS 3 Yrotation Xrotation Zrotation
   JOINT RightAnkle
   {
    OFFSET 0.000000 -39.717900 0.002100
    CHANNELS 3 Yrotation Xrotation Zrotation
    JOINT RightToe
    {
     OFFSET 0.000000 -4.965400 11.033500
     CHANNELS 3 Yrotation Xrotation Zrotation
     End Site
     {
      OFFSET 0.000000 -1.423100 5.872300
     }
    }
   }
  }
 }
 JOINT LeftHip
 {
  OFFSET 7.771700 -0.012900 -0.001300
  CHANNELS 3 Yrotation Xrotation Zrotation
  JOINT LeftKnee
  {
   OFFSET 0.000000 -40.869800 0.001200
   CHANNELS 3 Yrotation Xrotation Zrotation
   JOINT LeftAnkle
   {
    OFFSET 0.000000 -39.717900 0.002100
    CHANNELS 3 Yrotation Xrotation Zrotation
    JOINT LeftToe
    {
     OFFSET 0.000000 -4.965400 11.033500
     CHANNELS 3 Yrotation Xrotation Zrotation
     End Site
     {
      OFFSET 0.000000 -1.423100 5.872300
     }
    }
   }
  }
 }
}
MOTION
Frames: 11
Frame Time: 0.008333
0.000000 85.388000 0.000000 0.000000 -5.767877 0.000000 0.000000 11.653817 0.000000 0.000000 -5.885947 0.000000 0.000000 -0.000000 0.000000 0.000000 -0.000000 0.000000 0.000000 12.528835 0.000000 0.000000 0.711642 0.000000 0.000000 -0.000000 0.000000 0.000000 0.000000 -90.000000 0.000000 -2.309062 0.000000 0.000000 2.309062 0.000000 0.000000 -0.000000 0.000000 0.000000 -0.000000 90.000000 0.000000 -2.309062 0.000000 0.000000 2.309062 0.000000 0.000000 8.520406 0.000000 0.000000 1.905762 0.000000 -0.000000 -4.658285 0.000000 0.000000 -0.000000 0.000000 0.000000 8.520406 0.000000 0.000000 1.905762 0.000000 -0.000000 -4.658285 0.000000 0.000000 -0.000000 0.000000
-113.920245 62.089045 18.920718 175.709275 -50.291944 -0.783206 4.343814 26.334259 1.201353 0.616973 4.369893 0.196121 0.983000 6.991405 0.346088 3.285750 21.413782 1.489235 4.550410 17.602742 3.901442 7.084415 -3.167153 5.671553 3.423892 7.658081 4.690115 -8.618672 -8.787092 -12.043278 -148.398321 -57.395064 171.671551 14.958567 -2.740458 -2.097565 -9.332872 5.076458 -0.313647 3.558466 -7.062380 15.472480 172.817283 -68.752479 174.131687 -0.642113 -10.308693 -8.037985 4.573542 -16.409995 -5.107439 -2.103927 59.299372 -6.681017 -1.003454 -6.826212 10.157690 0.366971 -0.744350 0.148290 -4.729659 -13.229892 2.289093 30.880904 75.118244 33.424218 1.599658 -11.397771 -6.087619 0.281991 0.846671 0.149075
-113.924873 62.087192 18.927454 175.709333 -50.324570 -0.783415 4.360627 26.272487 1.192269 0.617069 4.394136 0.200087 0.981628 7.011225 0.350149 3.297816 21.410056 1.483065 4.512280 17.589117 3.902560 7.013570 -3.192176 5.685902 3.415020 7.678605 4.720756 -8.530066 -8.749669 -12.103078 -148.652196 -57.402475 171.913745 15.109526 -2.736677 -2.228988 -9.340212 5.104079 -0.292235 3.490338 -7.020359 15.515148 173.112689 -68.813488 173.783996 -0.719054 -10.190708 -8.276934 4.573649 -16.374820 -5.109858 -2.112958 59.284188 -6.685556 -0.993751 -6.819255 10.159453 0.363121 -0.748844 0.149245 -4.720962 -13.200616 2.285830 30.868603 75.113644 33.414772 1.593759 -11.398045 -6.084804 0.284059 0.853778 0.150711
-113.928508 62.090644 18.930092 175.716466 -50.407418 -0.796078 4.377390 26.282773 1.199306 0.612079 4.431678 0.207119 0.983385 7.014370 0.350284 3.309502 21.394735 1.470006 4.474712 17.573282 3.904611 6.943399 -3.221359 5.701868 3.409969 7.650196 4.737858 -8.445529 -8.669539 -12.149609 -148.890370 -57.415833 172.146762 15.244351 -2.756721 -2.374642 -9.323331 5.062585 -0.274404 3.382229 -6.909758 15.569037 173.322326 -68.877113 173.511880 -0.770477 -10.088954 -8.437274 4.566657 -16.286023 -5.100729 -2.123263 59.268425 -6.690090 -0.983137 -6.800225 10.165135 0.355643 -0.768668 0.147083 -4.716970 -13.118204 2.285711 30.853667 75.112093 33.404639 1.585037 -11.388536 -6.085018 0.290677 0.845274 0.150254
-113.931616 62.093784 18.932906 175.730169 -50.494780 -0.818501 4.389871 26.300994 1.210460 0.609731 4.466344 0.214409 0.992971 6.990083 0.340398 3.316797 21.411091 1.472045 4.438115 17.555806 3.907427 6.874692 -3.253592 5.718913 3.405094 7.616679 4.747148 -8.348509 -8.589724 -12.190308 -149.092293 -57.442075 172.343224 15.364367 -2.804522 -2.507667 -9.317310 5.039163 -0.255569 3.277886 -6.818564 15.617871 173.415107 -68.943822 173.329016 -0.803273 -9.991527 -8.517402 4.555753 -16.195638 -5.087508 -2.125432 59.256317 -6.684986 -0.979015 -6.767155 10.177313 0.358389 -0.795228 0.134396 -4.714655 -13.033424 2.287387 30.873513 75.106789 33.425262 1.610324 -11.372796 -6.097628 0.314113 0.837776 0.160377
-113.938386 62.095557 18.936070 175.745915 -50.576981 -0.820955 4.383618 26.350785 1.201096 0.626611 4.380842 0.191169 0.998376 7.021205 0.345353 3.320327 21.460001 1.489169 4.411309 17.549693 3.917448 6.800958 -3.299945 5.731160 3.399397 7.622190 4.767065 -8.237274 -8.554009 -12.235983 -149.239508 -57.484813 172.503961 15.463745 -2.871569 -2.619427 -9.317537 5.023393 -0.238098 3.175547 -6.734785 15.667017 173.373290 -69.011691 173.249356 -0.825834 -9.875034 -8.523533 4.547493 -16.107594 -5.097430 -2.115326 59.245348 -6.672351 -0.982382 -6.748814 10.179171 0.360157 -0.807614 0.136704 -4.706081 -12.956338 2.270814 30.864362 75.102963 33.418517 1.593746 -11.358797 -6.082983 0.304074 0.828382 0.154073
-113.943388 62.101614 18.935285 175.770188 -50.695547 -0.837936 4.376117 26.437228 1.201970 0.633595 4.355274 0.183507 1.003684 7.018949 0.340445 3.325755 21.492239 1.501616 4.402372 17.560604 3.933613 6.713565 -3.370736 5.734151 3.396497 7.618622 4.778736 -8.119243 -8.517477 -12.283203 -149.321488 -57.545002 172.623272 15.535148 -2.951376 -2.712467 -9.311845 4.995738 -0.227359 3.061320 -6.645452 15.720987 173.198759 -69.081993 173.276812 -0.850103 -9.723279 -8.462188 4.527720 -15.972414 -5.098209 -2.107343 59.220127 -6.658313 -0.973670 -6.731739 10.179566 0.353803 -0.814200 0.136601 -4.705745 -12.839036 2.259147 30.837034 75.098703 33.395701 1.578980 -11.331405 -6.070961 0.294942 0.805481 0.147496
-113.955162 62.103359 18.936835 175.810697 -50.783012 -0.826790 4.340960 26.464153 1.149544 0.635922 4.375174 0.188150 1.007407 7.014578 0.336248 3.325598 21.530309 1.518944 4.367731 17.519154 3.914979 6.645601 -3.403414 5.757168 3.404555 7.519359 4.745960 -8.012188 -8.398619 -12.311098 -149.336136 -57.622468 172.696076 15.579154 -3.032020 -2.793659 -9.297903 4.949811 -0.227783 2.930482 -6.552748 15.780732 172.908070 -69.161674 173.401091 -0.886164 -9.536987 -8.328288 4.511579 -15.876804 -5.137216 -2.130125 59.203534 -6.682598 -0.992695 -6.665419 10.189638 0.393998 -0.857455 0.140557 -4.713069 -12.755872 2.209883 30.852800 75.079841 33.404839 1.525851 -11.334899 -6.065862 0.319527 0.817986 0.157548
-113.959903 62.101051 18.941848 175.821203 -50.839561 -0.834438 4.356553 26.394586 1.134112 0.621481 4.485817 0.214149 1.013791 6.982003 0.324248 3.332143 21.539218 1.516095 4.304558 17.465040 3.905248 6.600187 -3.394066 5.795522 3.403541 7.526039 4.766262 -7.882593 -8.359568 -12.354818 -149.292156 -57.712604 172.724653 15.602368 -3.098417 -2.861232 -9.295809 4.963458 -0.209453 2.795493 -6.485550 15.840841 172.524349 -69.264270 173.611291 -0.939335 -9.336819 -8.126231 4.502178 -15.817996 -5.137328 -2.130350 59.189392 -6.682685 -0.988988 -6.635199 10.199286 0.394455 -0.865976 0.137462 -4.712090 -12.703907 2.204777 30.870140 75.071842 33.417941 1.532174 -11.332763 -6.067379 0.326106 0.827433 0.158713
-113.963368 62.097868 18.947285 175.826695 -50.888945 -0.844933 4.365013 26.383842 1.134982 0.622852 4.490318 0.212925 1.015411 6.988627 0.325755 3.337296 21.552273 1.514838 4.258453 17.433329 3.907820 6.539471 -3.408320 5.821770 3.404334 7.528270 4.782769 -7.744866 -8.316714 -12.395830 -149.195037 -57.811115 172.707820 15.614643 -3.142902 -2.909653 -9.291707 4.973288 -0.195610 2.650711 -6.416178 15.900377 172.101316 -69.399658 173.870003 -1.009439 -9.161603 -7.889300 4.495164 -15.769240 -5.128580 -2.145388 59.175281 -6.698601 -0.977535 -6.595351 10.213155 0.393909 -0.879143 0.132726 -4.701326 -12.661475 2.207017 30.884413 75.066828 33.435576 1.543676 -11.326123 -6.074416 0.328860 0.831436 0.169126
-113.966132 62.097187 18.950523 175.837950 -50.955614 -0.862717 4.369789 26.392172 1.140012 0.627515 4.492546 0.212539 1.012671 6.994656 0.326249 3.345710 21.560795 1.515053 4.217486 17.417704 3.915262 6.471605 -3.431970 5.844208 3.401801 7.502419 4.789090 -7.603218 -8.238084 -12.432009 -149.043572 -57.916418 172.645850 15.629854 -3.162023 -2.941151 -9.282657 4.958064 -0.184894 2.483610 -6.307758 15.950510 171.731413 -69.562382 174.100110 -1.086221 -9.038250 -7.660052 4.483398 -15.700166 -5.114297 -2.172026 59.158177 -6.727144 -0.956816 -6.548129 10.231876 0.381229 -0.874685 0.133717 -4.694187 -12.600481 2.214199 30.883078 75.066908 33.441701 1.525923 -11.317003 -6.072740 0.391681 0.827528 0.172470
